<svg width="21" height="19" viewBox="0 0 21 19" fill="none" xmlns="http://www.w3.org/2000/svg">
<path fill-rule="evenodd" clip-rule="evenodd" d="M9.35588 0.115244C9.80081 -0.0189274 10.2869 -0.036419 10.7449 0.0652641L10.9389 0.115244L18.8313 2.50065C19.2314 2.62159 19.5807 2.8317 19.8384 3.10649C20.0962 3.38129 20.2517 3.70945 20.2869 4.05275L20.2947 4.20269V9.07618C20.2947 10.5487 19.8014 11.9939 18.8669 13.2592C17.9324 14.5245 16.5914 15.563 14.9854 16.2651L14.6855 16.3914L10.9039 17.9153C10.6957 17.9991 10.4683 18.0474 10.2358 18.0571C10.0034 18.0668 9.77102 18.0377 9.55319 17.9717L9.39083 17.9153L5.60924 16.3914C3.97508 15.7328 2.59184 14.7309 1.60554 13.4913C0.619252 12.2517 0.0664997 10.8205 0.00563756 9.34879L0 9.07618V4.20269C6.55639e-06 3.8584 0.121348 3.52119 0.349897 3.23033C0.578446 2.93946 0.904802 2.7069 1.29097 2.55971L1.46348 2.50065L9.35588 0.115244ZM14.018 5.96198L8.83385 10.1403L6.84046 8.53367C6.62889 8.36327 6.34201 8.2676 6.04293 8.26768C5.74384 8.26777 5.45704 8.36361 5.24563 8.53412C5.03421 8.70464 4.9155 8.93585 4.91561 9.17691C4.91572 9.41797 5.03463 9.64912 5.24619 9.81951L7.95667 12.0041C8.07184 12.097 8.20859 12.1706 8.3591 12.2209C8.50961 12.2712 8.67093 12.297 8.83385 12.297C8.99677 12.297 9.15809 12.2712 9.3086 12.2209C9.45911 12.1706 9.59586 12.097 9.71103 12.0041L15.6123 7.24691C15.72 7.16309 15.8059 7.06281 15.865 6.95195C15.9241 6.84108 15.9552 6.72184 15.9565 6.60118C15.9578 6.48052 15.9292 6.36086 15.8725 6.24918C15.8159 6.1375 15.7321 6.03604 15.6263 5.95071C15.5204 5.86539 15.3945 5.79792 15.256 5.75222C15.1174 5.70653 14.9689 5.68354 14.8192 5.68459C14.6695 5.68564 14.5216 5.71071 14.384 5.75833C14.2464 5.80596 14.122 5.87519 14.018 5.96198Z" fill="white"/>
</svg>
