<svg width="17" height="20" viewBox="0 0 17 20" fill="none" xmlns="http://www.w3.org/2000/svg">
<path fill-rule="evenodd" clip-rule="evenodd" d="M7.5406 1.09889C7.8992 0.964715 8.29101 0.947224 8.66014 1.04891L8.81644 1.09889L15.1775 3.48429C15.5 3.60523 15.7816 3.81534 15.9893 4.09014C16.197 4.36493 16.3223 4.6931 16.3507 5.03639L16.357 5.18633V10.0598C16.357 11.5323 15.9594 12.9775 15.2062 14.2429C14.4531 15.5082 13.3722 16.5467 12.0779 17.2487L11.8361 17.3751L8.78827 18.899C8.62045 18.9828 8.43715 19.031 8.24983 19.0407C8.0625 19.0504 7.87519 19.0213 7.69962 18.9553L7.56877 18.899L4.5209 17.3751C3.20381 16.7165 2.08895 15.7145 1.29403 14.475C0.499101 13.2354 0.053597 11.8042 0.00454373 10.3324L0 10.0598V5.18633C5.28428e-06 4.84204 0.097803 4.50483 0.282008 4.21397C0.466213 3.9231 0.729247 3.69054 1.04049 3.54336L1.17952 3.48429L7.5406 1.09889ZM11.2982 6.94562L7.11986 11.1239L5.51323 9.51731C5.34272 9.34692 5.1115 9.25124 4.87044 9.25132C4.62938 9.25141 4.39823 9.34725 4.22784 9.51777C4.05745 9.68828 3.96177 9.9195 3.96185 10.1606C3.96194 10.4016 4.05778 10.6328 4.22829 10.8032L6.41287 12.9877C6.5057 13.0806 6.61591 13.1543 6.73722 13.2045C6.85853 13.2548 6.98855 13.2807 7.11986 13.2807C7.25116 13.2807 7.38119 13.2548 7.50249 13.2045C7.6238 13.1543 7.73402 13.0806 7.82684 12.9877L12.5831 8.23056C12.6699 8.14673 12.7391 8.04646 12.7868 7.93559C12.8344 7.82472 12.8594 7.70548 12.8605 7.58482C12.8615 7.46416 12.8386 7.3445 12.7929 7.23282C12.7472 7.12114 12.6797 7.01968 12.5944 6.93436C12.509 6.84903 12.4076 6.78156 12.2959 6.73587C12.1842 6.69018 12.0646 6.66718 11.9439 6.66823C11.8232 6.66928 11.704 6.69435 11.5931 6.74197C11.4823 6.7896 11.382 6.85883 11.2982 6.94562Z" fill="white"/>
</svg>
